<svg width="1059" height="148" viewBox="0 0 1059 148" fill="none" xmlns="http://www.w3.org/2000/svg">
<path d="M51.5414 146.6C38.7414 146.6 29.5414 144 23.9414 138.8C18.4747 133.6 15.7414 124.8 15.7414 112.4V58.6H0.141357V47.4L15.7414 44.6L21.7414 15.6H32.5414V44.6L66.7414 44.8V58.8L32.5414 58.6V112.4C32.5414 117.867 33.208 122 34.5414 124.8C35.8747 127.6 38.0747 129.533 41.1414 130.6C44.208 131.667 48.6747 132.2 54.5414 132.2C59.0747 132.2 63.808 131.733 68.7414 130.8V144.8C63.9414 146 58.208 146.6 51.5414 146.6Z" fill="#03AC0E"/>
<path d="M133.824 41.8C149.158 41.8 161.424 46.0667 170.624 54.6C179.958 63 184.624 76.4 184.624 94.8C184.624 113.2 179.958 126.667 170.624 135.2C161.424 143.6 149.158 147.8 133.824 147.8C118.491 147.8 106.158 143.6 96.8242 135.2C87.6242 126.667 83.0242 113.2 83.0242 94.8C83.0242 76.4 87.6242 63 96.8242 54.6C106.158 46.0667 118.491 41.8 133.824 41.8ZM133.824 56.2C125.824 56.2 119.424 57.3333 114.624 59.6C109.958 61.8667 106.424 65.8 104.024 71.4C101.757 77 100.624 84.8 100.624 94.8C100.624 104.8 101.757 112.6 104.024 118.2C106.424 123.8 109.958 127.733 114.624 130C119.424 132.267 125.824 133.4 133.824 133.4C141.824 133.4 148.158 132.267 152.824 130C157.624 127.733 161.158 123.8 163.424 118.2C165.824 112.6 167.024 104.8 167.024 94.8C167.024 84.8 165.824 77 163.424 71.4C161.158 65.8 157.624 61.8667 152.824 59.6C148.158 57.3333 141.824 56.2 133.824 56.2Z" fill="#03AC0E"/>
<path d="M319.393 134V145H296.793L254.593 95.6L232.393 112V128L245.993 134V145H201.993V134L215.593 128V20L201.993 14.4V2.99998H232.393V94.6L279.593 60.4L262.993 56V44.6H313.193V56L299.593 62.6L268.193 85.8L304.793 128L319.393 134Z" fill="#03AC0E"/>
<path d="M381.48 41.8C396.814 41.8 409.08 46.0667 418.28 54.6C427.614 63 432.28 76.4 432.28 94.8C432.28 113.2 427.614 126.667 418.28 135.2C409.08 143.6 396.814 147.8 381.48 147.8C366.147 147.8 353.814 143.6 344.48 135.2C335.28 126.667 330.68 113.2 330.68 94.8C330.68 76.4 335.28 63 344.48 54.6C353.814 46.0667 366.147 41.8 381.48 41.8ZM381.48 56.2C373.48 56.2 367.08 57.3333 362.28 59.6C357.614 61.8667 354.08 65.8 351.68 71.4C349.414 77 348.28 84.8 348.28 94.8C348.28 104.8 349.414 112.6 351.68 118.2C354.08 123.8 357.614 127.733 362.28 130C367.08 132.267 373.48 133.4 381.48 133.4C389.48 133.4 395.814 132.267 400.48 130C405.28 127.733 408.814 123.8 411.08 118.2C413.48 112.6 414.68 104.8 414.68 94.8C414.68 84.8 413.48 77 411.08 71.4C408.814 65.8 405.28 61.8667 400.48 59.6C395.814 57.3333 389.48 56.2 381.48 56.2Z" fill="#03AC0E"/>
<path d="M555.449 134V145H531.649L526.449 130.6C520.982 136.2 515.049 140.333 508.649 143C502.383 145.667 495.316 147 487.449 147C474.649 147 465.182 144.533 459.049 139.6C452.916 134.667 449.849 126.667 449.849 115.6C449.849 103.867 453.516 95.4 460.849 90.2C468.183 84.8667 479.983 82.2 496.249 82.2C502.649 82.2 508.249 82.8 513.049 84C517.983 85.0667 521.983 86.4 525.049 88V80.2C525.049 74.0667 524.249 69.3333 522.649 66C521.182 62.5333 518.449 60.0667 514.449 58.6C510.582 57 504.916 56.2 497.449 56.2C483.983 56.2 469.982 57.8 455.449 61V46.6C470.249 43.4 484.383 41.8 497.849 41.8C510.383 41.8 519.783 43.0667 526.049 45.6C532.449 48.1333 536.649 51.8 538.649 56.6C540.783 61.4 541.849 68.0667 541.849 76.6V128L555.449 134ZM467.449 114.4C467.449 120.933 469.049 125.6 472.249 128.4C475.583 131.2 481.583 132.6 490.249 132.6C496.649 132.6 502.783 131.467 508.649 129.2C514.649 126.8 520.116 123.533 525.049 119.4V99.4C517.583 97.2667 508.582 96.2 498.049 96.2C486.449 96.2 478.449 97.6667 474.049 100.6C469.649 103.533 467.449 108.133 467.449 114.4Z" fill="#03AC0E"/>
<path d="M688.12 134V145H657.719V78.8C657.719 70.9333 655.786 65.2667 651.919 61.8C648.186 58.2 642.653 56.4 635.319 56.4C630.653 56.4 626.053 57 621.519 58.2C617.119 59.4 610.653 61.5333 602.12 64.6V128L617.719 134V145H571.719V134L585.319 128V61.6L571.719 56V44.6H593.919L599.12 52.8C606.586 48.9333 613.653 46.1333 620.319 44.4C626.986 42.6667 633.786 41.8 640.719 41.8C649.12 41.8 655.786 43.1333 660.719 45.8C665.653 48.3333 669.186 52.4667 671.319 58.2C673.453 63.8 674.519 71.4 674.519 81V128L688.12 134Z" fill="#03AC0E"/>
<path d="M724.737 0.799988C728.87 0.799988 732.137 1.99999 734.537 4.39999C737.07 6.79998 738.337 10.2 738.337 14.6C738.337 19 737.07 22.4 734.537 24.8C732.137 27.2 728.87 28.4 724.737 28.4C720.603 28.4 717.27 27.2 714.737 24.8C712.337 22.4 711.137 19 711.137 14.6C711.137 10.2 712.337 6.79998 714.737 4.39999C717.27 1.99999 720.603 0.799988 724.737 0.799988ZM734.737 128L748.337 134V145H704.337V134L717.937 128V61.6L704.337 56V44.6H734.737V128Z" fill="#03AC0E"/>
<path d="M947.693 134V145H917.293V78.8C917.293 70.9333 915.56 65.2667 912.093 61.8C908.626 58.2 903.493 56.4 896.693 56.4C892.026 56.4 887.693 57 883.693 58.2C879.826 59.2667 873.426 61.4 864.493 64.6V128L878.093 134V145H847.693V78.8C847.693 70.9333 845.96 65.2667 842.493 61.8C839.026 58.2 833.893 56.4 827.093 56.4C822.56 56.4 818.293 57 814.293 58.2C810.426 59.2667 803.96 61.4 794.893 64.6V128L808.493 134V145H764.493V134L778.093 128V61.6L764.493 56V44.6H786.693L791.893 52.8C799.76 48.8 806.826 46 813.093 44.4C819.36 42.6667 825.826 41.8 832.493 41.8C839.16 41.8 844.693 42.7333 849.093 44.6C853.626 46.4666 857.36 49.4 860.293 53.4C868.293 49.2667 875.493 46.3333 881.893 44.6C888.426 42.7333 895.16 41.8 902.093 41.8C910.093 41.8 916.426 43.1333 921.093 45.8C925.76 48.3333 929.093 52.4667 931.093 58.2C933.093 63.8 934.093 71.4 934.093 81V128L947.693 134Z" fill="#03AC0E"/>
<path d="M1013.11 41.8C1026.71 41.8 1037.71 46.0667 1046.11 54.6C1054.64 63 1058.91 75.5333 1058.91 92.2V100.2H980.507C981.174 109.133 982.774 116 985.307 120.8C987.974 125.467 991.774 128.733 996.707 130.6C1001.77 132.467 1008.71 133.4 1017.51 133.4C1030.17 133.4 1042.71 131.867 1055.11 128.8V143.2C1049.91 144.533 1043.84 145.6 1036.91 146.4C1029.97 147.333 1023.37 147.8 1017.11 147.8C999.374 147.8 985.907 143.8 976.707 135.8C967.507 127.8 962.907 114.133 962.907 94.8C962.907 76.8 967.44 63.4667 976.507 54.8C985.574 46.1333 997.774 41.8 1013.11 41.8ZM1012.11 56.2C1001.71 56.2 994.107 58.5333 989.307 63.2C984.507 67.8667 981.64 75.4667 980.707 86H1041.11C1040.31 76.1333 1037.57 68.7333 1032.91 63.8C1028.24 58.7333 1021.31 56.2 1012.11 56.2Z" fill="#03AC0E"/>
</svg>
